<svg width="97" height="97" viewBox="0 0 97 97" fill="none" xmlns="http://www.w3.org/2000/svg">
<g filter="url(#filter0_dd_584_499)">
<path d="M19.0818 17.4083C23.2686 11.9521 29.4516 8.38221 36.2703 7.48451L49.6607 5.72218C56.4795 4.82447 63.3761 6.67171 68.8326 10.8586L79.5474 19.0813C85.0038 23.2682 88.5735 29.4511 89.4713 36.2699L91.2344 49.6597C92.1322 56.4786 90.2841 63.3757 86.0972 68.8321L77.8753 79.5465C73.6885 85.0028 67.5055 88.5725 60.6868 89.4703L47.2961 91.2339C40.4772 92.1317 33.581 90.2831 28.1245 86.0962L17.4093 77.8748C11.953 73.6881 8.3833 67.5049 7.48549 60.6863L5.72267 47.2951C4.82504 40.4764 6.67283 33.5804 10.8595 28.124L19.0818 17.4083Z" stroke="#2B2A2A" stroke-opacity="0.3" shape-rendering="crispEdges"/>
</g>
<defs>
<filter id="filter0_dd_584_499" x="0" y="0" width="96.957" height="96.957" filterUnits="userSpaceOnUse" color-interpolation-filters="sRGB">
<feFlood flood-opacity="0" result="BackgroundImageFix"/>
<feColorMatrix in="SourceAlpha" type="matrix" values="0 0 0 0 0 0 0 0 0 0 0 0 0 0 0 0 0 0 127 0" result="hardAlpha"/>
<feOffset/>
<feGaussianBlur stdDeviation="2.5"/>
<feComposite in2="hardAlpha" operator="out"/>
<feColorMatrix type="matrix" values="0 0 0 0 0.423529 0 0 0 0 0.423529 0 0 0 0 0.423529 0 0 0 1 0"/>
<feBlend mode="normal" in2="BackgroundImageFix" result="effect1_dropShadow_584_499"/>
<feColorMatrix in="SourceAlpha" type="matrix" values="0 0 0 0 0 0 0 0 0 0 0 0 0 0 0 0 0 0 127 0" result="hardAlpha"/>
<feOffset/>
<feGaussianBlur stdDeviation="2.5"/>
<feComposite in2="hardAlpha" operator="out"/>
<feColorMatrix type="matrix" values="0 0 0 0 0.423529 0 0 0 0 0.423529 0 0 0 0 0.423529 0 0 0 1 0"/>
<feBlend mode="normal" in2="effect1_dropShadow_584_499" result="effect2_dropShadow_584_499"/>
<feBlend mode="normal" in="SourceGraphic" in2="effect2_dropShadow_584_499" result="shape"/>
</filter>
</defs>
</svg>
